<?xml version="1.0" encoding="UTF-8"?>
<!DOCTYPE svg PUBLIC "-//W3C//DTD SVG 1.1//EN" "http://www.w3.org/Graphics/SVG/1.1/DTD/svg11.dtd">
<svg xmlns="http://www.w3.org/2000/svg" version="1.1" width="4327px" height="793px" style="shape-rendering:geometricPrecision; text-rendering:geometricPrecision; image-rendering:optimizeQuality; fill-rule:evenodd; clip-rule:evenodd" xmlns:xlink="http://www.w3.org/1999/xlink">
<g><path style="opacity:1" fill="#ffa836" d="M 408.5,-0.5 C 512.5,-0.5 616.5,-0.5 720.5,-0.5C 721.167,0.833333 721.833,0.833333 722.5,-0.5C 722.833,-0.5 723.167,-0.5 723.5,-0.5C 790.052,2.25414 856.718,5.75414 923.5,10C 954.24,12.413 984.573,17.0797 1014.5,24C 1061.77,40.2687 1093.27,72.102 1109,119.5C 1118.2,156.929 1124.2,194.929 1127,233.5C 1134.32,340.498 1134.32,447.498 1127,554.5C 1124.19,594.67 1118.19,634.336 1109,673.5C 1088.6,731.222 1048.1,765.055 987.5,775C 949.321,780.308 910.987,783.975 872.5,786C 822.355,788.481 772.355,790.647 722.5,792.5C 619.167,792.5 515.833,792.5 412.5,792.5C 345.274,789.848 277.941,786.348 210.5,782C 182.968,779.733 155.635,776.067 128.5,771C 72.8507,756.017 37.0174,720.851 21,665.5C 11.5146,619.658 5.51461,573.324 3,526.5C 2.3362,506.978 1.16953,487.645 -0.5,468.5C -0.5,419.833 -0.5,371.167 -0.5,322.5C 2.27171,278.268 5.77171,233.935 10,189.5C 12.8626,160.766 18.8626,132.766 28,105.5C 51.2331,55.6156 90.0665,26.1156 144.5,17C 182.679,11.6923 221.012,8.0256 259.5,6C 309.314,3.54236 358.98,1.3757 408.5,-0.5 Z"/></g>
<g><path style="opacity:0.985" fill="#000000" d="M 1679.5,58.5 C 1718.17,58.5 1756.83,58.5 1795.5,58.5C 1795.5,284.833 1795.5,511.167 1795.5,737.5C 1756.5,737.5 1717.5,737.5 1678.5,737.5C 1678.17,511.097 1678.5,284.764 1679.5,58.5 Z"/></g>
<g><path style="opacity:0.978" fill="#000000" d="M 3636.5,58.5 C 3675.5,58.5 3714.5,58.5 3753.5,58.5C 3753.33,141.167 3753.5,223.834 3754,306.5C 3762.07,294.759 3771.24,283.926 3781.5,274C 3788.55,269.3 3795.89,264.967 3803.5,261C 3858.84,246.969 3903.01,262.802 3936,308.5C 3955.98,341.437 3968.65,377.104 3974,415.5C 3982.65,475.169 3982.65,534.836 3974,594.5C 3968.74,629.607 3957.07,662.274 3939,692.5C 3932.67,701.208 3925.83,709.374 3918.5,717C 3911.37,723.399 3903.7,729.065 3895.5,734C 3829.75,763.47 3779.75,746.97 3745.5,684.5C 3742.51,702.086 3740.18,719.752 3738.5,737.5C 3704.5,737.5 3670.5,737.5 3636.5,737.5C 3636.5,511.167 3636.5,284.833 3636.5,58.5 Z M 3801.5,372.5 C 3817.52,371.861 3831.02,377.195 3842,388.5C 3848.26,398.373 3852.93,409.039 3856,420.5C 3864.99,468.222 3866.65,516.222 3861,564.5C 3859.33,582.139 3854,598.472 3845,613.5C 3838.46,621.022 3830.29,625.855 3820.5,628C 3815.84,628.471 3811.34,629.304 3807,630.5C 3794.92,628.612 3783.09,625.445 3771.5,621C 3764.15,615.456 3758.31,608.623 3754,600.5C 3753.33,535.5 3753.33,470.5 3754,405.5C 3764.27,386.382 3780.1,375.382 3801.5,372.5 Z"/></g>
<g><path style="opacity:0.972" fill="#000000" d="M 1422.5,93.5 C 1532.72,86.5156 1602.55,135.849 1632,241.5C 1639.93,270.973 1644.1,300.973 1644.5,331.5C 1606.5,331.5 1568.5,331.5 1530.5,331.5C 1530.77,301.076 1524.6,272.076 1512,244.5C 1506.92,236.086 1500.42,228.919 1492.5,223C 1437.44,197.013 1397.94,211.847 1374,267.5C 1365.13,292.358 1360.47,318.025 1360,344.5C 1359.08,400.18 1359.41,455.846 1361,511.5C 1363.17,542.667 1372.5,571.334 1389,597.5C 1392.87,601.034 1396.37,604.867 1399.5,609C 1404.17,612.667 1408.83,616.333 1413.5,620C 1428.02,626.315 1443.02,629.649 1458.5,630C 1468.6,627.845 1478.6,625.178 1488.5,622C 1498.69,615.806 1506.86,607.639 1513,597.5C 1521.12,579.706 1526.12,561.039 1528,541.5C 1528.89,531.488 1529.73,521.488 1530.5,511.5C 1568.17,511.167 1605.84,511.5 1643.5,512.5C 1644.25,554.736 1637.42,595.736 1623,635.5C 1596.98,701.626 1548.48,738.46 1477.5,746C 1455.43,747.101 1433.43,746.434 1411.5,744C 1400.38,740.382 1389.05,737.048 1377.5,734C 1371.58,730.242 1365.25,727.242 1358.5,725C 1319.22,700.38 1289.72,666.88 1270,624.5C 1254.17,587.847 1245.5,549.514 1244,509.5C 1243.33,449.5 1243.33,389.5 1244,329.5C 1245.67,277.08 1259.67,228.414 1286,183.5C 1296.35,167.812 1308.19,153.312 1321.5,140C 1341.65,121.759 1364.65,108.426 1390.5,100C 1401.36,97.9188 1412.02,95.7521 1422.5,93.5 Z"/></g>
<g><path style="opacity:0.982" fill="#000000" d="M 2898.5,102.5 C 3024.17,102.333 3149.83,102.5 3275.5,103C 3276.5,141.761 3276.83,180.594 3276.5,219.5C 3232.5,219.5 3188.5,219.5 3144.5,219.5C 3144.5,392.167 3144.5,564.833 3144.5,737.5C 3105.83,737.5 3067.17,737.5 3028.5,737.5C 3028.5,564.833 3028.5,392.167 3028.5,219.5C 2984.83,219.5 2941.17,219.5 2897.5,219.5C 2897.17,180.427 2897.51,141.427 2898.5,102.5 Z"/></g>
<g><path style="opacity:1" fill="#fffefe" d="M 907.5,187.5 C 918.32,185.965 928.32,188.132 937.5,194C 967.237,219.977 983.237,252.811 985.5,292.5C 986.219,322.776 971.552,339.11 941.5,341.5C 924.272,340.468 910.772,332.801 901,318.5C 893.667,306.5 886.333,294.5 879,282.5C 869.293,272.284 859.293,271.951 849,281.5C 846.456,286.548 844.789,291.881 844,297.5C 843.833,329.667 843.667,361.833 843.5,394C 843.368,429.521 843.868,465.021 845,500.5C 846.157,514.009 852.657,523.843 864.5,530C 874.878,533.6 884.044,539.1 892,546.5C 898.055,559.618 896.222,571.451 886.5,582C 872.909,591.2 857.909,596.867 841.5,599C 832.533,600.293 823.533,601.293 814.5,602C 781.453,603.131 748.453,602.464 715.5,600C 702.668,598.567 690.002,596.234 677.5,593C 665.608,590.094 655.442,584.261 647,575.5C 638.447,562.192 639.947,550.358 651.5,540C 661.957,536.184 672.29,532.184 682.5,528C 685.531,525.441 687.698,522.274 689,518.5C 693.781,499.141 696.448,479.475 697,459.5C 698.487,431.507 699.82,403.507 701,375.5C 701.915,348.807 701.582,322.141 700,295.5C 699.373,289.311 697.373,283.645 694,278.5C 687.333,273.4 680.5,273.233 673.5,278C 670.667,280.833 667.833,283.667 665,286.5C 655.068,302.775 643.234,317.608 629.5,331C 615.004,342.466 599.337,344.466 582.5,337C 573.27,330.049 567.436,320.882 565,309.5C 564.601,266.799 579.767,230.633 610.5,201C 620.991,191.282 633.324,187.615 647.5,190C 660.064,192.65 672.731,194.65 685.5,196C 743.167,196.667 800.833,196.667 858.5,196C 875.337,195.306 891.671,192.472 907.5,187.5 Z"/></g>
<g><path style="opacity:1" fill="#fffefe" d="M 346.5,188.5 C 370.871,186.845 394.871,189.011 418.5,195C 436.277,201.389 453.943,208.056 471.5,215C 481.392,214.991 491.225,214.158 501,212.5C 507.318,212.073 513.151,213.573 518.5,217C 540.682,237.533 553.182,263.033 556,293.5C 556.801,305.202 556.468,316.868 555,328.5C 548.069,356.1 530.402,370.434 502,371.5C 487.754,372.309 476.42,366.976 468,355.5C 461.748,345.33 455.748,334.997 450,324.5C 425.343,284.424 389.509,267.257 342.5,273C 320.102,281.066 305.602,296.566 299,319.5C 289.616,371.598 300.949,418.598 333,460.5C 360.192,490.568 394.025,503.068 434.5,498C 463.962,495.527 489.295,484.194 510.5,464C 524.257,457.475 534.757,460.975 542,474.5C 543.197,477.089 544.197,479.756 545,482.5C 546.428,514.815 535.261,541.981 511.5,564C 508.446,566.194 505.112,567.861 501.5,569C 481.44,572.686 462.44,579.353 444.5,589C 387.802,610.477 331.469,609.477 275.5,586C 213.501,558.661 172.667,512.494 153,447.5C 134.713,361.353 159.88,290.853 228.5,236C 263.703,209.898 303.037,194.065 346.5,188.5 Z"/></g>
<g><path style="opacity:0.975" fill="#000000" d="M 1983.5,256.5 C 2057.05,249.343 2112.22,277.343 2149,340.5C 2169,378.198 2180.33,418.531 2183,461.5C 2186.57,506.226 2183.9,550.559 2175,594.5C 2165.01,640.014 2143.51,678.848 2110.5,711C 2099.14,719.681 2087.14,727.348 2074.5,734C 2065.24,736.557 2056.24,739.557 2047.5,743C 2022.94,746.846 1998.27,747.513 1973.5,745C 1963.72,742.804 1954.05,740.138 1944.5,737C 1941.5,736 1938.5,735 1935.5,734C 1930.28,730.221 1924.61,727.221 1918.5,725C 1903.74,715.054 1890.58,703.221 1879,689.5C 1847.79,646.45 1830.46,598.117 1827,544.5C 1822.95,498.41 1825.61,452.743 1835,407.5C 1845.75,358.465 1869.92,317.632 1907.5,285C 1930.42,268.867 1955.76,259.367 1983.5,256.5 Z M 2000.5,372.5 C 2015.27,372.266 2028.27,376.766 2039.5,386C 2048.72,396.592 2055.22,408.759 2059,422.5C 2071.28,474.087 2071.61,525.753 2060,577.5C 2055.95,593.853 2048.12,608.019 2036.5,620C 2026.57,625.031 2016.24,628.531 2005.5,630.5C 1994.92,628.433 1984.58,625.266 1974.5,621C 1961.83,609.173 1953.66,594.673 1950,577.5C 1938.44,525.761 1938.77,474.095 1951,422.5C 1954.66,410.177 1960.16,398.844 1967.5,388.5C 1972.41,384.085 1977.75,380.252 1983.5,377C 1989.33,375.627 1995,374.127 2000.5,372.5 Z"/></g>
<g><path style="opacity:0.979" fill="#000000" d="M 2408.5,256.5 C 2444.04,251.239 2474.21,261.239 2499,286.5C 2512.03,302.206 2521.7,319.873 2528,339.5C 2535.54,367.647 2539.54,396.313 2540,425.5C 2540.5,529.499 2540.67,633.499 2540.5,737.5C 2501.5,737.5 2462.5,737.5 2423.5,737.5C 2423.98,631.477 2423.48,525.477 2422,419.5C 2418.51,389.669 2401.84,374.003 2372,372.5C 2351.14,374.09 2334.81,383.423 2323,400.5C 2322.5,512.833 2322.33,625.166 2322.5,737.5C 2283.83,737.5 2245.17,737.5 2206.5,737.5C 2206.5,579.833 2206.5,422.167 2206.5,264.5C 2243.17,264.5 2279.83,264.5 2316.5,264.5C 2317.24,285.569 2318.74,306.569 2321,327.5C 2327.59,315.984 2334.92,304.984 2343,294.5C 2349.36,287.643 2356.19,281.31 2363.5,275.5C 2377.06,265.548 2392.06,259.214 2408.5,256.5 Z"/></g>
<g><path style="opacity:0.969" fill="#000000" d="M 2716.5,256.5 C 2733.53,256.144 2750.53,256.644 2767.5,258C 2793.36,261.681 2815.7,272.348 2834.5,290C 2836.75,291.377 2838.92,292.877 2841,294.5C 2869.53,325.915 2887.2,362.915 2894,405.5C 2897.05,424.041 2898.72,442.708 2899,461.5C 2899.67,490.5 2899.67,519.5 2899,548.5C 2828.57,549.498 2758.07,549.831 2687.5,549.5C 2690.11,579.21 2703.11,603.044 2726.5,621C 2738.89,625.765 2751.56,628.932 2764.5,630.5C 2783.68,628.687 2802.68,625.521 2821.5,621C 2831,616.279 2840.67,611.945 2850.5,608C 2853.37,605.819 2856.37,603.819 2859.5,602C 2861.16,601.212 2862.83,600.878 2864.5,601C 2874.19,630.908 2883.19,661.075 2891.5,691.5C 2890.2,694.996 2888.2,698.163 2885.5,701C 2872.27,710.113 2858.6,718.446 2844.5,726C 2836.7,728.041 2829.36,731.041 2822.5,735C 2812.63,737.038 2802.96,739.705 2793.5,743C 2765.55,747.216 2737.55,747.55 2709.5,744C 2699,740.371 2688.33,737.038 2677.5,734C 2670.69,729.761 2663.69,725.761 2656.5,722C 2625.66,699.192 2602.83,670.025 2588,634.5C 2572.15,593.733 2564.98,551.4 2566.5,507.5C 2565.08,460.559 2571.91,414.893 2587,370.5C 2596.43,345.614 2609.43,322.948 2626,302.5C 2650.56,276.135 2680.73,260.802 2716.5,256.5 Z M 2733.5,372.5 C 2760.79,372.95 2776.95,386.617 2782,413.5C 2784.52,426.376 2785.69,439.376 2785.5,452.5C 2752.5,452.5 2719.5,452.5 2686.5,452.5C 2687.18,429.507 2693.34,408.174 2705,388.5C 2708.83,385 2712.67,381.5 2716.5,378C 2722.24,376.029 2727.91,374.196 2733.5,372.5 Z"/></g>
<g><path style="opacity:0.969" fill="#000000" d="M 4326.5,438.5 C 4326.5,475.5 4326.5,512.5 4326.5,549.5C 4256.17,549.5 4185.83,549.5 4115.5,549.5C 4118.11,579.21 4131.11,603.044 4154.5,621C 4166.89,625.765 4179.56,628.932 4192.5,630.5C 4211.68,628.687 4230.68,625.521 4249.5,621C 4259,616.279 4268.67,611.945 4278.5,608C 4281.37,605.819 4284.37,603.819 4287.5,602C 4289.16,601.212 4290.83,600.878 4292.5,601C 4302.19,630.908 4311.19,661.075 4319.5,691.5C 4318.2,694.996 4316.2,698.163 4313.5,701C 4300.27,710.113 4286.6,718.446 4272.5,726C 4264.7,728.041 4257.36,731.041 4250.5,735C 4240.63,737.038 4230.96,739.705 4221.5,743C 4191.82,747.624 4162.16,747.624 4132.5,743C 4123.71,739.549 4114.71,736.549 4105.5,734C 4098.69,729.761 4091.69,725.761 4084.5,722C 4049.04,695.272 4024.2,660.772 4010,618.5C 3998.37,582.435 3993.2,545.435 3994.5,507.5C 3992.73,456.785 4000.9,407.785 4019,360.5C 4054.21,276.357 4117.04,242.857 4207.5,260C 4236.45,268.161 4260.45,283.661 4279.5,306.5C 4302.22,335.538 4316.39,368.538 4322,405.5C 4323.7,416.622 4325.2,427.622 4326.5,438.5 Z M 4161.5,372.5 C 4188.79,372.95 4204.95,386.617 4210,413.5C 4212.52,426.376 4213.69,439.376 4213.5,452.5C 4180.5,452.5 4147.5,452.5 4114.5,452.5C 4115.18,429.507 4121.34,408.174 4133,388.5C 4136.83,385 4140.67,381.5 4144.5,378C 4150.24,376.029 4155.91,374.196 4161.5,372.5 Z"/></g>
<g><path style="opacity:0.982" fill="#000000" d="M 3266.5,264.5 C 3305.17,264.5 3343.83,264.5 3382.5,264.5C 3382.02,369.521 3382.52,474.521 3384,579.5C 3385.89,595.872 3392.39,610.038 3403.5,622C 3411.45,626.161 3419.79,628.995 3428.5,630.5C 3439.9,628.382 3451.23,625.549 3462.5,622C 3470.58,617.256 3477.41,611.09 3483,603.5C 3483.5,490.5 3483.67,377.5 3483.5,264.5C 3522.17,264.5 3560.83,264.5 3599.5,264.5C 3599.5,422.167 3599.5,579.833 3599.5,737.5C 3565.5,737.5 3531.5,737.5 3497.5,737.5C 3495.74,719.759 3493.41,702.092 3490.5,684.5C 3459.65,736.251 3414.65,755.751 3355.5,743C 3347.85,739.824 3340.18,736.491 3332.5,733C 3311.98,718.846 3296.48,700.346 3286,677.5C 3274.41,647.632 3268.08,616.632 3267,584.5C 3266.5,477.834 3266.33,371.167 3266.5,264.5 Z"/></g>
</svg>
